HIERARCHY
ROOT hip
{
  OFFSET 0.0 0.0 0.0
  CHANNELS 6 Xposition Yposition Zposition Zrotation Yrotation Xrotation
  JOINT torso
  {
    OFFSET 0.0 0.0 0.0
    CHANNELS 3 Zrotation Xrotation Yrotation
    JOINT neck
    {
      OFFSET -8.600829999999974 327.7417449999999 60.895874000000276
      CHANNELS 3 Zrotation Xrotation Yrotation
      JOINT head
      {
        OFFSET 0.7211610000001087 266.848846 239.12060599999995
        CHANNELS 3 Zrotation Xrotation Yrotation
        End Site
        {
          OFFSET 0.0 0.0 0.0
        }
      }
    }
    JOINT left_collar
    {
      OFFSET -8.600829999999974 327.7417449999999 60.895874000000276
      CHANNELS 3 Zrotation Xrotation Yrotation
      JOINT left_upper_arm
      {
        OFFSET -122.29599000000002 -5.21875 31.800903999999946
        CHANNELS 3 Zrotation Xrotation Yrotation
        JOINT left_forearm
        {
          OFFSET -195.94708199999997 63.423126000000025 226.99352999999996
          CHANNELS 3 Zrotation Xrotation Yrotation
          JOINT left_hand
          {
            OFFSET -232.19226099999992 28.282164999999964 80.86950699999989
            CHANNELS 3 Zrotation Xrotation Yrotation
            End Site
            {
              OFFSET 0.0 0.0 0.0
            }
          }
        }
      }
    }
    JOINT right_collar
    {
      OFFSET -8.600829999999974 327.7417449999999 60.895874000000276
      CHANNELS 3 Zrotation Xrotation Yrotation
      JOINT right_upper_arm
      {
        OFFSET 168.41261300000002 -11.913361000000066 -9.389160000000174
        CHANNELS 3 Zrotation Xrotation Yrotation
        JOINT right_forearm
        {
          OFFSET 213.49279800000005 104.82293699999997 83.52258300000017
          CHANNELS 3 Zrotation Xrotation Yrotation
          JOINT right_hand
          {
            OFFSET 222.067185 62.005675999999994 -110.52026300000034
            CHANNELS 3 Zrotation Xrotation Yrotation
            End Site
            {
              OFFSET 0.0 0.0 0.0
            }
          }
        }
      }
    }
  }
}
MOTION
Frames: 17
Frame Time: 0.01
-424.3571239150888 128.7376647212714 1414.749459770146 4.352629971779301 -15.927854748114859 -15.68092679833055 -2.0921730123823674 8.416654118879045 0.4621846170721337 -3.9930257251294794 -0.7125331555394642 3.5855068767108076 0.0 0.0 0.0 -0.4726611696406033 -0.16204301953023637 1.0257230315474977 49.44425237582926 39.0808079365686 25.81591187014727 32.53910888196235 12.373288594778336 -5.844349046628553 0.0 120.0 0.0 -4.877587063803459 -0.13222718674219072 1.2369248329504496 -68.36400207049104 18.370507585453996 -22.52832239026078 -32.441351244574854 -15.532369570396762 -3.848519445219674 0.0 0.0 0.0
-424.30493977514277 128.7470024108123 1414.4189380689297 4.331655415170418 -15.907311210743611 -15.667426158782833 -2.085637589627288 8.426381330235046 0.46152895089407453 -3.976194736435768 -0.6913584255973968 3.5701983041331595 0.0 0.0 0.0 -0.46596868274430236 -0.15981160913490244 1.0111594262604564 49.43387245915498 39.08553015327176 25.78509895243331 32.504171052442736 12.358166529711072 -5.839864689982542 0.0 120.0 0.0 -4.87045534255592 -0.13433840756203488 1.2155043460109525 -68.36656185236164 18.35751078284836 -22.60194116896341 -32.44121130044842 -15.533176243332651 -3.860438558075411 0.0 0.0 0.0
-424.25823352660376 128.75788182342714 1414.0812125351156 4.309865605552893 -15.886550167428762 -15.651957911758243 -2.079338700439456 8.436043118518624 0.46090064817559273 -3.958387567412311 -0.6696636007100903 3.554009796876272 0.0 0.0 0.0 -0.45934529393171836 -0.15760402168263707 0.9968144572279701 49.426368363724144 39.091453779955245 25.75588636079682 32.467971163438726 12.342279487919301 -5.834111412332369 0.0 120.0 0.0 -4.863094204627183 -0.13641377227698953 1.19428404714907 -68.36908528362805 18.34396817965546 -22.67854891179949 -32.44247064880068 -15.534658849247714 -3.872156084954137 0.0 0.0 0.0
-424.22143800478136 128.7696235350625 1413.7347337590138 4.28704969772813 -15.865463386009308 -15.634048478028074 -2.073230519010139 8.445422977933632 0.46029247965392983 -3.939753863830466 -0.6475529034104512 3.5370768075002226 0.0 0.0 0.0 -0.45263481217664464 -0.15540491001546852 0.9833086888379743 49.423076451770434 39.09926861495245 25.728665569374495 32.43090134938506 12.32576993208474 -5.82699604924967 0.0 120.0 0.0 -4.8554562392196114 -0.13839538908336707 1.173754108408588 -68.37216939003554 18.32994910186642 -22.75813094622668 -32.44465597317482 -15.536643771101128 -3.8844821825595006 0.0 0.0 0.0
-424.1992699097343 128.78151232186494 1413.3778672470603 4.263016600512197 -15.843929336478102 -15.61323405182748 -2.0672583710377648 8.454304456619848 0.4596961844904811 -3.920507819569601 -0.625168411595736 3.519593044520805 0.0 0.0 0.0 -0.4456973919566357 -0.1532036820788919 0.971277560521696 49.425371023138226 39.109673050421655 25.703871827907843 32.39348690484812 12.308843759357382 -5.818471394652574 0.0 120.0 0.0 -4.847513356117181 -0.14022402244862125 1.1544252796254608 -68.37644933262128 18.31554169038889 -22.84058251083617 -32.447218074533176 -15.538919822392806 -3.898227462359828 0.0 0.0 0.0
-424.1966254834406 128.79280478610966 1413.008980576105 4.237607602419174 -15.821819638583804 -15.58907981864843 -2.0613609268408952 8.462477645680393 0.4591027829265428 -3.9009317428958044 -0.6026944756309653 3.5018136928451087 0.0 0.0 0.0 -0.4384163168576733 -0.15099562604583575 0.961355368118249 49.43463049226259 39.12335318783464 25.681982592267854 32.35639277618108 12.291774211458126 -5.808543676429565 0.0 120.0 0.0 -4.839261255368096 -0.1418405510928672 1.1368181952067002 -68.38258454458337 18.300855000701 -22.925687152844393 -32.44954230018266 -15.541241141693389 -3.9141729631988866 0.0 0.0 0.0
-424.21846380384267 128.80273254834344 1412.62653429604 4.210708092203079 -15.79900583275969 -15.561199885202175 -2.055472338256282 8.469745057062488 0.4585028753391939 -3.8813771047914396 -0.5803608070334239 3.4840563608194177 0.0 0.0 0.0 -0.430703415074739 -0.1487826921391387 0.9541590482062424 49.452202807854334 39.14096213018699 25.663513627352597 32.32042495574888 12.27490324202633 -5.797277941733455 0.0 120.0 0.0 -4.830722860619867 -0.1431874656092217 1.1214518949101262 -68.39124470664575 18.286020826865627 -23.01309704063548 -32.45096146780333 -15.543331284251723 -3.933041082394686 0.0 0.0 0.0
-424.26968009733724 128.81050065341233 1412.2291728699665 4.182257860907611 -15.775366283955949 -15.529277267777706 -2.049524248430209 8.475926709337806 0.45788691773906653 -3.8622627272522054 -0.5584439485733527 3.4666994466874494 0.0 0.0 0.0 -0.422502819323265 -0.14657386486042595 0.9502721586625235 49.47937104864288 39.16310016176612 25.64901245548099 32.28652611549972 12.258639999873928 -5.784800864490084 0.0 120.0 0.0 -4.821950519041209 -0.1442103631447258 1.1088317904178004 -68.40309593942773 18.27119512828891 -23.102316300551283 -32.450771231188895 -15.544888550249727 -3.9554683771750523 0.0 0.0 0.0
-424.3549719469908 128.81528125187134 1411.815811731441 4.152259543576844 -15.75079308203394 -15.49308324379318 -2.0434476445604974 8.480864353609299 0.4572454697948119 -3.844069871772462 -0.5372669012899837 3.4501777103071696 0.0 0.0 0.0 -0.41379284342116257 -0.14438507288689068 0.9502294366428995 49.51732003684269 39.19029649369611 25.639048813499688 32.25576500396738 12.243456200605436 -5.771300617430716 0.0 120.0 0.0 -4.813026833691454 -0.14485939610421228 1.0994373369231343 -68.41878755138755 18.25655894196133 -23.192688442623684 -32.44824778543725 -15.545592576495828 -3.9819810340715853 0.0 0.0 0.0
-424.47870175121466 128.8162030294839 1411.3857165092932 4.120784851836218 -15.725198861984689 -15.45249534607581 -2.0371745736041107 8.484424885407321 0.45656941848883126 -3.8273341019057523 -0.5171967668104238 3.4349749391321174 0.0 0.0 0.0 -0.4045858201431421 -0.14223860192764337 0.9545022916249813 49.567104720820595 39.22299320367743 25.634201829028072 32.22931935994317 12.229878292826166 -5.757023610791312 0.0 120.0 0.0 -4.804064056340314 -0.14509063364383426 1.0937096856899897 -68.43893963502177 18.242318672613493 -23.28338883915721 -32.442667745659485 -15.545112196284215 -4.012973659134951 0.0 0.0 0.0
-424.6447592399475 128.81233724289237 1410.9385706494768 4.087978355424263 -15.698523517264869 -15.407513270122111 -2.0306397915773937 8.48650308420602 0.45585018737853117 -3.812633915956381 -0.49864036383424604 3.421613708038754 0.0 0.0 0.0 -0.3949258375915538 -0.14016200025688277 0.9634855555041876 49.62962101154941 39.261531931853206 25.635043761960016 32.208452356517746 12.218476469837105 -5.742268077325085 0.0 120.0 0.0 -4.79520203001894 -0.14486729869797568 1.09203960042833 -68.46413174461284 18.228705665810388 -23.37342306875182 -32.43332996181643 -15.543114541873122 -4.048691867256685 0.0 0.0 0.0
-424.85642823581355 128.80268156465027 1410.4745280716745 4.054058681370825 -15.670740798607884 -15.358271973951865 -2.023782454294764 8.487023875147168 0.4550799463475413 -3.8005762779704564 -0.48203789143579956 3.4106423517247495 0.0 0.0 0.0 -0.3848844303044186 -0.1381864987393005 0.9774857649930431 49.70557972559411 39.30614381047435 25.64212039741477 32.194482868875376 12.20985072498264 -5.727374670565932 0.0 120.0 0.0 -4.786604734182901 -0.1441608491110577 1.094755920330406 -68.4948928124227 18.215974982796684 -23.46163174393834 -32.419578964914606 -15.539275329169417 -4.089218945993727 0.0 0.0 0.0
-425.1162621001491 128.78614324311383 1409.994248127371 4.019317110397187 -15.64186476741455 -15.305051285388469 -2.016547973007972 8.485944304448926 0.4542518386461376 -3.7917793192339766 -0.46785482996165695 3.402619397754254 0.0 0.0 0.0 -0.3745544270974458 -0.1363450064968091 0.9967111941913869 49.79548429050422 39.356943001717035 25.655928514048632 32.188750145227665 12.204614290799583 -5.712714431958265 0.0 120.0 0.0 -4.778455554065879 -0.14295187849554403 1.1021148500377589 -68.53169237201773 18.204403309971827 -23.54670221466025 -32.40082968716311 -15.533290228712639 -4.134466647078138 0.0 0.0 0.0
-425.4259723783929 128.7615233488312 1409.4989108966895 3.9841136609410834 -15.611956012806257 -15.248281401483526 -2.0088901517206446 8.483255370740265 0.45336024095676936 -3.7868526365091713 -0.4565723840694625 3.3980958460758206 0.0 0.0 0.0 -0.3640423226003519 -0.1346697872555952 1.021263788542857 49.899612895239045 39.41392409497163 25.6768912571327 32.1925737406963 12.203374930981331 -5.6986746560637185 0.0 120.0 0.0 -4.770951467824058 -0.14123081988866035 1.1142903547097627 -68.57493306889637 18.19428594891967 -23.62718730236109 -32.37659305859697 -15.524887189920321 -4.184169936917725 0.0 0.0 0.0
-425.78633502825784 128.727504107249 1408.9902116418557 3.9488708540042357 -15.581127462187915 -15.188543773553635 -2.0007736931405584 8.478983785149483 0.4524010683136873 -3.78637576887686 -0.4486768757830631 3.3975958195174525 0.0 0.0 0.0 -0.35345970504485824 -0.13318996455842783 1.0511330838392976 50.01800579631425 39.47696347254301 25.70533266737942 32.207209840250016 12.20671466380035 -5.685643319686275 0.0 120.0 0.0 -4.764296412603039 -0.13899844231419137 1.131365936450394 -68.62494436247107 18.185932843372097 -23.70153099412911 -32.34650203739878 -15.513839539409624 -4.237885343750736 0.0 0.0 0.0
-426.19711827916285 128.68264147970729 1408.4703339331902 3.9140654308491807 -15.549549536591403 -15.126567016402564 -1.992177104294942 8.473193665425956 0.45137212878497646 -3.790875578880981 -0.4446485797895522 3.401596237438368 0.0 0.0 0.0 -0.34291440604669876 -0.13192903786475652 1.086192142114005 50.150458486792175 39.54582459282718 25.74145298315854 32.23380534030463 12.215168582568047 -5.673992825548875 0.0 120.0 0.0 -4.758694141958901 -0.1362661360453361 1.1533280653725513 -68.68197727287424 18.179663607908072 -23.76810082588416 -32.310337556456915 -15.499979609477247 -4.294992408009144 0.0 0.0 0.0
-426.6570356540988 128.6253651998449 1407.941901580147 3.8802183398556305 -15.517454338844793 -15.063217656530933 -1.983095953460232 8.465988109736537 0.4502735231856843 -3.800803382059737 -0.4449505439491774 3.410506269285834 0.0 0.0 0.0 -0.3325020986892034 -0.1309026060300987 1.1261955168166065 50.29652136261567 39.62016696665545 25.785306567538093 32.27335126563476 12.229203500838949 -5.6640638414500675 0.0 120.0 0.0 -4.754340911114294 -0.13305598566115817 1.1800615351624313 -68.74620001561016 18.175801534045476 -23.82522649985275 -32.268053744951594 -15.483212562970628 -4.354697713807058 0.0 0.0 0.0
